<svg width="223" height="11" viewBox="0 0 223 11" fill="none" xmlns="http://www.w3.org/2000/svg">
<mask id="path-1-outside-1_672_1204" maskUnits="userSpaceOnUse" x="0" y="0" width="223" height="11" fill="black">
<rect fill="white" width="223" height="11"/>
<path d="M4.3 1.5875H1.275V1.0625H7.925V1.5875H4.9V10H4.3V1.5875ZM43.7146 10V5.525H37.5771V10H36.9771V1.0625H37.5771V4.9875H43.7146V1.0625H44.3146V10H43.7146ZM75.2095 6.9L73.922 10H73.2845L77.047 1H77.397L81.172 10H80.497L79.2095 6.9H75.2095ZM77.1845 2C77.1761 2.00833 77.1595 2.05833 77.1345 2.15C77.0178 2.50833 76.9053 2.8125 76.797 3.0625L75.422 6.3875H78.997L77.622 3.075C77.3303 2.44167 77.1845 2.08333 77.1845 2ZM110.148 10V1.1C110.94 1.04167 111.602 1.0125 112.136 1.0125C112.986 1.0125 113.686 1.23333 114.236 1.675C114.786 2.10833 115.061 2.725 115.061 3.525C115.061 4.06667 114.902 4.57083 114.586 5.0375C114.269 5.50417 113.915 5.875 113.523 6.15C113.831 6.575 114.211 7.08333 114.661 7.675C115.119 8.25833 115.415 8.625 115.548 8.775C116.056 9.31667 116.631 9.625 117.273 9.7L117.261 10.1C116.752 10.0917 116.34 10.0167 116.023 9.875C115.706 9.725 115.402 9.5 115.111 9.2C114.827 8.9 114.115 7.96667 112.973 6.4C112.156 6.4 111.415 6.375 110.748 6.325V10H110.148ZM112.611 5.9C112.977 5.9 113.369 5.65833 113.786 5.175C114.202 4.69167 114.411 4.13333 114.411 3.5C114.411 2.85833 114.194 2.375 113.761 2.05C113.336 1.71667 112.769 1.55 112.061 1.55C111.686 1.55 111.248 1.56667 110.748 1.6V5.8375C111.415 5.87917 112.036 5.9 112.611 5.9ZM149.363 1.85C148.755 1.59167 148.151 1.4625 147.551 1.4625C146.334 1.4625 145.726 1.9125 145.726 2.8125C145.726 3.20417 145.863 3.57083 146.138 3.9125C146.413 4.24583 146.746 4.54583 147.138 4.8125C147.53 5.07083 147.921 5.3375 148.313 5.6125C148.705 5.8875 149.038 6.21667 149.313 6.6C149.588 6.98333 149.726 7.4 149.726 7.85C149.726 8.60833 149.471 9.18333 148.963 9.575C148.455 9.95833 147.751 10.15 146.851 10.15C145.959 10.15 145.196 9.92083 144.563 9.4625L144.863 9.0125C145.463 9.40417 146.121 9.6 146.838 9.6C147.555 9.6 148.105 9.45833 148.488 9.175C148.871 8.88333 149.063 8.46667 149.063 7.925C149.063 7.55 148.926 7.19583 148.651 6.8625C148.376 6.52083 148.042 6.21667 147.651 5.95C147.259 5.675 146.867 5.39583 146.476 5.1125C146.084 4.82917 145.751 4.49167 145.476 4.1C145.201 3.70833 145.063 3.2875 145.063 2.8375C145.063 2.24583 145.28 1.77917 145.713 1.4375C146.155 1.0875 146.746 0.912499 147.488 0.912499C148.238 0.912499 148.934 1.0625 149.576 1.3625L149.363 1.85ZM179.462 10V1.0625H183.612V1.5875H180.062V4.875H183.274V5.3875H180.062V9.475H183.749V10H179.462ZM213.988 8.8125C213.163 7.92083 212.751 6.825 212.751 5.525C212.751 4.225 213.163 3.13333 213.988 2.25C214.822 1.35833 215.872 0.912499 217.138 0.912499C218.405 0.912499 219.455 1.35833 220.288 2.25C221.122 3.13333 221.538 4.225 221.538 5.525C221.538 6.825 221.122 7.92083 220.288 8.8125C219.455 9.70417 218.405 10.15 217.138 10.15C215.872 10.15 214.822 9.70417 213.988 8.8125ZM214.438 2.6375C213.747 3.4125 213.401 4.375 213.401 5.525C213.401 6.675 213.747 7.64167 214.438 8.425C215.138 9.20833 216.038 9.6 217.138 9.6C218.247 9.6 219.147 9.20833 219.838 8.425C220.538 7.64167 220.888 6.675 220.888 5.525C220.888 4.375 220.538 3.4125 219.838 2.6375C219.147 1.85417 218.247 1.4625 217.138 1.4625C216.03 1.4625 215.13 1.85417 214.438 2.6375Z"/>
</mask>
<path d="M4.3 1.5875H1.275V1.0625H7.925V1.5875H4.9V10H4.3V1.5875ZM43.7146 10V5.525H37.5771V10H36.9771V1.0625H37.5771V4.9875H43.7146V1.0625H44.3146V10H43.7146ZM75.2095 6.9L73.922 10H73.2845L77.047 1H77.397L81.172 10H80.497L79.2095 6.9H75.2095ZM77.1845 2C77.1761 2.00833 77.1595 2.05833 77.1345 2.15C77.0178 2.50833 76.9053 2.8125 76.797 3.0625L75.422 6.3875H78.997L77.622 3.075C77.3303 2.44167 77.1845 2.08333 77.1845 2ZM110.148 10V1.1C110.94 1.04167 111.602 1.0125 112.136 1.0125C112.986 1.0125 113.686 1.23333 114.236 1.675C114.786 2.10833 115.061 2.725 115.061 3.525C115.061 4.06667 114.902 4.57083 114.586 5.0375C114.269 5.50417 113.915 5.875 113.523 6.15C113.831 6.575 114.211 7.08333 114.661 7.675C115.119 8.25833 115.415 8.625 115.548 8.775C116.056 9.31667 116.631 9.625 117.273 9.7L117.261 10.1C116.752 10.0917 116.34 10.0167 116.023 9.875C115.706 9.725 115.402 9.5 115.111 9.2C114.827 8.9 114.115 7.96667 112.973 6.4C112.156 6.4 111.415 6.375 110.748 6.325V10H110.148ZM112.611 5.9C112.977 5.9 113.369 5.65833 113.786 5.175C114.202 4.69167 114.411 4.13333 114.411 3.5C114.411 2.85833 114.194 2.375 113.761 2.05C113.336 1.71667 112.769 1.55 112.061 1.55C111.686 1.55 111.248 1.56667 110.748 1.6V5.8375C111.415 5.87917 112.036 5.9 112.611 5.9ZM149.363 1.85C148.755 1.59167 148.151 1.4625 147.551 1.4625C146.334 1.4625 145.726 1.9125 145.726 2.8125C145.726 3.20417 145.863 3.57083 146.138 3.9125C146.413 4.24583 146.746 4.54583 147.138 4.8125C147.53 5.07083 147.921 5.3375 148.313 5.6125C148.705 5.8875 149.038 6.21667 149.313 6.6C149.588 6.98333 149.726 7.4 149.726 7.85C149.726 8.60833 149.471 9.18333 148.963 9.575C148.455 9.95833 147.751 10.15 146.851 10.15C145.959 10.15 145.196 9.92083 144.563 9.4625L144.863 9.0125C145.463 9.40417 146.121 9.6 146.838 9.6C147.555 9.6 148.105 9.45833 148.488 9.175C148.871 8.88333 149.063 8.46667 149.063 7.925C149.063 7.55 148.926 7.19583 148.651 6.8625C148.376 6.52083 148.042 6.21667 147.651 5.95C147.259 5.675 146.867 5.39583 146.476 5.1125C146.084 4.82917 145.751 4.49167 145.476 4.1C145.201 3.70833 145.063 3.2875 145.063 2.8375C145.063 2.24583 145.28 1.77917 145.713 1.4375C146.155 1.0875 146.746 0.912499 147.488 0.912499C148.238 0.912499 148.934 1.0625 149.576 1.3625L149.363 1.85ZM179.462 10V1.0625H183.612V1.5875H180.062V4.875H183.274V5.3875H180.062V9.475H183.749V10H179.462ZM213.988 8.8125C213.163 7.92083 212.751 6.825 212.751 5.525C212.751 4.225 213.163 3.13333 213.988 2.25C214.822 1.35833 215.872 0.912499 217.138 0.912499C218.405 0.912499 219.455 1.35833 220.288 2.25C221.122 3.13333 221.538 4.225 221.538 5.525C221.538 6.825 221.122 7.92083 220.288 8.8125C219.455 9.70417 218.405 10.15 217.138 10.15C215.872 10.15 214.822 9.70417 213.988 8.8125ZM214.438 2.6375C213.747 3.4125 213.401 4.375 213.401 5.525C213.401 6.675 213.747 7.64167 214.438 8.425C215.138 9.20833 216.038 9.6 217.138 9.6C218.247 9.6 219.147 9.20833 219.838 8.425C220.538 7.64167 220.888 6.675 220.888 5.525C220.888 4.375 220.538 3.4125 219.838 2.6375C219.147 1.85417 218.247 1.4625 217.138 1.4625C216.03 1.4625 215.13 1.85417 214.438 2.6375Z" fill="white"/>
<path d="M4.3 1.5875H4.925V0.9625H4.3V1.5875ZM1.275 1.5875H0.65V2.2125H1.275V1.5875ZM1.275 1.0625V0.4375H0.65V1.0625H1.275ZM7.925 1.0625H8.55V0.4375H7.925V1.0625ZM7.925 1.5875V2.2125H8.55V1.5875H7.925ZM4.9 1.5875V0.9625H4.275V1.5875H4.9ZM4.9 10V10.625H5.525V10H4.9ZM4.3 10H3.675V10.625H4.3V10ZM4.3 0.9625H1.275V2.2125H4.3V0.9625ZM1.9 1.5875V1.0625H0.65V1.5875H1.9ZM1.275 1.6875H7.925V0.4375H1.275V1.6875ZM7.3 1.0625V1.5875H8.55V1.0625H7.3ZM7.925 0.9625H4.9V2.2125H7.925V0.9625ZM4.275 1.5875V10H5.525V1.5875H4.275ZM4.9 9.375H4.3V10.625H4.9V9.375ZM4.925 10V1.5875H3.675V10H4.925ZM43.7146 10H43.0896V10.625H43.7146V10ZM43.7146 5.525H44.3396V4.9H43.7146V5.525ZM37.5771 5.525V4.9H36.9521V5.525H37.5771ZM37.5771 10V10.625H38.2021V10H37.5771ZM36.9771 10H36.3521V10.625H36.9771V10ZM36.9771 1.0625V0.4375H36.3521V1.0625H36.9771ZM37.5771 1.0625H38.2021V0.4375H37.5771V1.0625ZM37.5771 4.9875H36.9521V5.6125H37.5771V4.9875ZM43.7146 4.9875V5.6125H44.3396V4.9875H43.7146ZM43.7146 1.0625V0.4375H43.0896V1.0625H43.7146ZM44.3146 1.0625H44.9396V0.4375H44.3146V1.0625ZM44.3146 10V10.625H44.9396V10H44.3146ZM44.3396 10V5.525H43.0896V10H44.3396ZM43.7146 4.9H37.5771V6.15H43.7146V4.9ZM36.9521 5.525V10H38.2021V5.525H36.9521ZM37.5771 9.375H36.9771V10.625H37.5771V9.375ZM37.6021 10V1.0625H36.3521V10H37.6021ZM36.9771 1.6875H37.5771V0.4375H36.9771V1.6875ZM36.9521 1.0625V4.9875H38.2021V1.0625H36.9521ZM37.5771 5.6125H43.7146V4.3625H37.5771V5.6125ZM44.3396 4.9875V1.0625H43.0896V4.9875H44.3396ZM43.7146 1.6875H44.3146V0.4375H43.7146V1.6875ZM43.6896 1.0625V10H44.9396V1.0625H43.6896ZM44.3146 9.375H43.7146V10.625H44.3146V9.375ZM75.2095 6.9V6.275H74.7923L74.6323 6.66028L75.2095 6.9ZM73.922 10V10.625H74.3392L74.4992 10.2397L73.922 10ZM73.2845 10L72.7078 9.75893L72.3458 10.625H73.2845V10ZM77.047 1V0.375H76.6308L76.4703 0.758933L77.047 1ZM77.397 1L77.9733 0.758252L77.8126 0.375H77.397V1ZM81.172 10V10.625H82.1119L81.7483 9.75825L81.172 10ZM80.497 10L79.9198 10.2397L80.0798 10.625H80.497V10ZM79.2095 6.9L79.7867 6.66028L79.6267 6.275H79.2095V6.9ZM77.1845 2H77.8095V0.491116L76.7425 1.55806L77.1845 2ZM77.1345 2.15L77.7288 2.34349L77.7335 2.32908L77.7374 2.31445L77.1345 2.15ZM76.797 3.0625L76.2234 2.81396L76.2194 2.82366L76.797 3.0625ZM75.422 6.3875L74.8444 6.14866L74.4872 7.0125H75.422V6.3875ZM78.997 6.3875V7.0125H79.9331L79.5742 6.14789L78.997 6.3875ZM77.622 3.075L78.1992 2.83539L78.1946 2.82438L78.1897 2.81356L77.622 3.075ZM74.6323 6.66028L73.3448 9.76028L74.4992 10.2397L75.7867 7.13972L74.6323 6.66028ZM73.922 9.375H73.2845V10.625H73.922V9.375ZM73.8611 10.2411L77.6236 1.24107L76.4703 0.758933L72.7078 9.75893L73.8611 10.2411ZM77.047 1.625H77.397V0.375H77.047V1.625ZM76.8206 1.24175L80.5956 10.2417L81.7483 9.75825L77.9733 0.758252L76.8206 1.24175ZM81.172 9.375H80.497V10.625H81.172V9.375ZM81.0742 9.76028L79.7867 6.66028L78.6323 7.13972L79.9198 10.2397L81.0742 9.76028ZM79.2095 6.275H75.2095V7.525H79.2095V6.275ZM76.7425 1.55806C76.6797 1.62086 76.6451 1.68273 76.6346 1.70155C76.6193 1.72903 76.6086 1.75296 76.6022 1.76786C76.5893 1.79801 76.5794 1.82636 76.5728 1.84611C76.559 1.88746 76.545 1.93587 76.5315 1.98555L77.7374 2.31445C77.7489 2.27246 77.7558 2.25004 77.7587 2.24139C77.7604 2.23614 77.7578 2.24469 77.7511 2.26026C77.7479 2.26787 77.74 2.28581 77.7273 2.3086C77.7208 2.32034 77.7106 2.33764 77.6967 2.35781C77.6836 2.37665 77.6605 2.40784 77.6264 2.44194L76.7425 1.55806ZM76.5402 1.95651C76.4275 2.30268 76.3217 2.58733 76.2235 2.814L77.3704 3.311C77.4889 3.03767 77.6081 2.71399 77.7288 2.34349L76.5402 1.95651ZM76.2194 2.82366L74.8444 6.14866L75.9995 6.62634L77.3745 3.30134L76.2194 2.82366ZM75.422 7.0125H78.997V5.7625H75.422V7.0125ZM79.5742 6.14789L78.1992 2.83539L77.0447 3.31461L78.4197 6.62711L79.5742 6.14789ZM78.1897 2.81356C78.0452 2.49984 77.9404 2.26185 77.8727 2.09565C77.8386 2.0118 77.8172 1.9541 77.8053 1.9181C77.7993 1.89992 77.7981 1.89451 77.7991 1.89844C77.7996 1.90069 77.8017 1.90949 77.8038 1.9232C77.8057 1.93526 77.8095 1.96282 77.8095 2H76.5595C76.5595 2.13627 76.604 2.26663 76.6183 2.31002C76.6429 2.38444 76.6762 2.47153 76.715 2.56685C76.7931 2.75898 76.9071 3.01683 77.0543 3.33644L78.1897 2.81356ZM110.148 10H109.523V10.625H110.148V10ZM110.148 1.1L110.102 0.47669L109.523 0.519358V1.1H110.148ZM114.236 1.675L113.844 2.16234L113.849 2.16593L114.236 1.675ZM114.586 5.0375L114.068 4.68656L114.586 5.0375ZM113.523 6.15L113.164 5.63849L112.644 6.00324L113.017 6.51702L113.523 6.15ZM114.661 7.675L114.163 8.0534L114.169 8.06114L114.661 7.675ZM115.548 8.775L115.081 9.19023L115.087 9.19654L115.092 9.2027L115.548 8.775ZM117.273 9.7L117.898 9.71952L117.916 9.14586L117.346 9.07923L117.273 9.7ZM117.261 10.1L117.25 10.7249L117.866 10.735L117.885 10.1195L117.261 10.1ZM116.023 9.875L115.755 10.44L115.768 10.4455L116.023 9.875ZM115.111 9.2L114.656 9.62918L114.662 9.63567L115.111 9.2ZM112.973 6.4L113.478 6.03191L113.291 5.775H112.973V6.4ZM110.748 6.325L110.795 5.70175L110.123 5.65137V6.325H110.748ZM110.748 10V10.625H111.373V10H110.748ZM113.786 5.175L113.312 4.76691L113.786 5.175ZM113.761 2.05L113.375 2.5419L113.386 2.55L113.761 2.05ZM110.748 1.6L110.706 0.976384L110.123 1.01528V1.6H110.748ZM110.748 5.8375H110.123V6.42466L110.709 6.46128L110.748 5.8375ZM110.773 10V1.1H109.523V10H110.773ZM110.194 1.72331C110.977 1.66562 111.623 1.6375 112.136 1.6375V0.387499C111.581 0.387499 110.902 0.417716 110.102 0.47669L110.194 1.72331ZM112.136 1.6375C112.873 1.6375 113.427 1.82701 113.844 2.16232L114.627 1.18768C113.944 0.639659 113.098 0.387499 112.136 0.387499V1.6375ZM113.849 2.16593C114.226 2.46288 114.436 2.88562 114.436 3.525H115.686C115.686 2.56438 115.345 1.75379 114.622 1.18407L113.849 2.16593ZM114.436 3.525C114.436 3.93618 114.318 4.31893 114.068 4.68656L115.103 5.38844C115.487 4.82274 115.686 4.19715 115.686 3.525H114.436ZM114.068 4.68656C113.787 5.10153 113.484 5.41401 113.164 5.63849L113.882 6.66151C114.346 6.33599 114.751 5.90681 115.103 5.38844L114.068 4.68656ZM113.017 6.51702C113.329 6.94703 113.711 7.45934 114.163 8.05335L115.158 7.29665C114.71 6.70732 114.334 6.20297 114.029 5.78298L113.017 6.51702ZM114.169 8.06114C114.624 8.63971 114.932 9.02304 115.081 9.19023L116.015 8.35977C115.897 8.22696 115.614 7.87695 115.152 7.28886L114.169 8.06114ZM115.092 9.2027C115.686 9.83488 116.391 10.2261 117.2 10.3208L117.346 9.07923C116.872 9.02388 116.427 8.79846 116.004 8.3473L115.092 9.2027ZM116.648 9.68048L116.636 10.0805L117.885 10.1195L117.898 9.71952L116.648 9.68048ZM117.271 9.47508C116.811 9.46755 116.491 9.39948 116.278 9.30449L115.768 10.4455C116.189 10.6339 116.693 10.7158 117.25 10.7249L117.271 9.47508ZM116.291 9.31016C116.053 9.19763 115.808 9.02096 115.559 8.76433L114.662 9.63567C114.996 9.97904 115.36 10.2524 115.755 10.4398L116.291 9.31016ZM115.565 8.77086C115.316 8.50704 114.631 7.61405 113.478 6.03191L112.468 6.76809C113.598 8.31928 114.339 9.29296 114.656 9.62914L115.565 8.77086ZM112.973 5.775C112.169 5.775 111.443 5.75036 110.795 5.70175L110.701 6.94825C111.386 6.99964 112.144 7.025 112.973 7.025V5.775ZM110.123 6.325V10H111.373V6.325H110.123ZM110.748 9.375H110.148V10.625H110.748V9.375ZM112.611 6.525C113.257 6.525 113.807 6.10736 114.259 5.58309L113.312 4.76691C112.931 5.2093 112.698 5.275 112.611 5.275V6.525ZM114.259 5.58309C114.773 4.98724 115.036 4.28438 115.036 3.5H113.786C113.786 3.98228 113.632 4.39609 113.312 4.76691L114.259 5.58309ZM115.036 3.5C115.036 2.7026 114.756 2.01564 114.136 1.55L113.386 2.55C113.631 2.73436 113.786 3.01406 113.786 3.5H115.036ZM114.146 1.55822C113.581 1.11498 112.865 0.924999 112.061 0.924999V2.175C112.673 2.175 113.09 2.31835 113.375 2.54178L114.146 1.55822ZM112.061 0.924999C111.668 0.924999 111.216 0.942412 110.706 0.976384L110.79 2.22362C111.28 2.19092 111.703 2.175 112.061 2.175V0.924999ZM110.123 1.6V5.8375H111.373V1.6H110.123ZM110.709 6.46128C111.387 6.50363 112.021 6.525 112.611 6.525V5.275C112.05 5.275 111.443 5.2547 110.787 5.21372L110.709 6.46128ZM149.363 1.85L149.119 2.42528L149.689 2.66727L149.936 2.09974L149.363 1.85ZM146.138 3.9125L145.651 4.30441L145.656 4.31024L146.138 3.9125ZM147.138 4.8125L146.786 5.32918L146.794 5.33423L147.138 4.8125ZM148.313 5.6125L148.672 5.10099L148.313 5.6125ZM149.313 6.6L148.805 6.96432L149.313 6.6ZM148.963 9.575L149.339 10.074L149.345 10.0701L148.963 9.575ZM144.563 9.4625L144.043 9.11581L143.709 9.61623L144.197 9.96882L144.563 9.4625ZM144.863 9.0125L145.205 8.48914L144.686 8.15079L144.343 8.66581L144.863 9.0125ZM148.488 9.175L148.86 9.67766L148.867 9.67239L148.488 9.175ZM148.651 6.8625L148.164 7.25441L148.168 7.26024L148.651 6.8625ZM147.651 5.95L147.291 6.46156L147.299 6.46662L147.651 5.95ZM146.476 5.1125L146.842 4.60611L146.476 5.1125ZM145.476 4.1L145.987 3.74086L145.476 4.1ZM145.713 1.4375L146.1 1.92829L146.101 1.92734L145.713 1.4375ZM149.576 1.3625L150.149 1.61224L150.392 1.05416L149.84 0.796323L149.576 1.3625ZM149.607 1.27472C148.93 0.986924 148.243 0.8375 147.551 0.8375V2.0875C148.058 2.0875 148.58 2.19641 149.119 2.42528L149.607 1.27472ZM147.551 0.8375C146.883 0.8375 146.27 0.957622 145.81 1.29753C145.315 1.66352 145.101 2.20674 145.101 2.8125H146.351C146.351 2.51826 146.44 2.38647 146.554 2.30247C146.702 2.19238 147.001 2.0875 147.551 2.0875V0.8375ZM145.101 2.8125C145.101 3.36382 145.298 3.86576 145.651 4.30438L146.625 3.52062C146.428 3.27591 146.351 3.04451 146.351 2.8125H145.101ZM145.656 4.31024C145.972 4.69333 146.35 5.03237 146.786 5.32912L147.49 4.29588C147.142 4.05929 146.854 3.79834 146.62 3.51476L145.656 4.31024ZM146.794 5.33423C147.18 5.58916 147.567 5.85242 147.954 6.12401L148.672 5.10099C148.276 4.82258 147.879 4.5525 147.482 4.29077L146.794 5.33423ZM147.954 6.12401C148.289 6.35924 148.572 6.63888 148.805 6.96432L149.821 6.23568C149.504 5.79445 149.121 5.41576 148.672 5.10099L147.954 6.12401ZM148.805 6.96432C149.008 7.24692 149.101 7.53727 149.101 7.85H150.351C150.351 7.26273 150.168 6.71975 149.821 6.23568L148.805 6.96432ZM149.101 7.85C149.101 8.45407 148.908 8.82881 148.582 9.07991L149.345 10.0701C150.035 9.53786 150.351 8.7626 150.351 7.85H149.101ZM148.587 9.07598C148.224 9.34985 147.669 9.525 146.851 9.525V10.775C147.832 10.775 148.686 10.5668 149.339 10.074L148.587 9.07598ZM146.851 9.525C146.071 9.525 145.442 9.3268 144.93 8.95618L144.197 9.96882C144.951 10.5149 145.847 10.775 146.851 10.775V9.525ZM145.083 9.80919L145.383 9.35919L144.343 8.66581L144.043 9.11581L145.083 9.80919ZM144.521 9.53586C145.223 9.99387 146 10.225 146.838 10.225V8.975C146.243 8.975 145.703 8.81447 145.205 8.48914L144.521 9.53586ZM146.838 10.225C147.625 10.225 148.327 10.0714 148.86 9.67761L148.117 8.67239C147.883 8.84522 147.485 8.975 146.838 8.975V10.225ZM148.867 9.67239C149.426 9.24665 149.688 8.63406 149.688 7.925H148.438C148.438 8.29927 148.317 8.52002 148.11 8.67761L148.867 9.67239ZM149.688 7.925C149.688 7.38314 149.485 6.89208 149.133 6.46476L148.168 7.26024C148.366 7.49959 148.438 7.71686 148.438 7.925H149.688ZM149.137 6.47062C148.821 6.07724 148.441 5.73196 148.002 5.43338L147.299 6.46662C147.644 6.70138 147.93 6.96443 148.164 7.25438L149.137 6.47062ZM148.01 5.43849C147.62 5.1652 147.231 4.88774 146.842 4.60611L146.109 5.61889C146.503 5.90393 146.897 6.1848 147.291 6.46151L148.01 5.43849ZM146.842 4.60611C146.506 4.36304 146.222 4.07514 145.987 3.74086L144.964 4.45914C145.279 4.9082 145.662 5.29529 146.109 5.61889L146.842 4.60611ZM145.987 3.74086C145.781 3.44732 145.688 3.1506 145.688 2.8375H144.438C144.438 3.4244 144.62 3.96934 144.964 4.45914L145.987 3.74086ZM145.688 2.8375C145.688 2.42133 145.829 2.14192 146.1 1.92829L145.326 0.946706C144.73 1.41641 144.438 2.07034 144.438 2.8375H145.688ZM146.101 1.92734C146.402 1.68911 146.843 1.5375 147.488 1.5375V0.287499C146.65 0.287499 145.908 0.485889 145.325 0.947658L146.101 1.92734ZM147.488 1.5375C148.152 1.5375 148.757 1.66968 149.311 1.92868L149.84 0.796323C149.111 0.455317 148.324 0.287499 147.488 0.287499V1.5375ZM149.003 1.11276L148.79 1.60026L149.936 2.09974L150.149 1.61224L149.003 1.11276ZM179.462 10H178.837V10.625H179.462V10ZM179.462 1.0625V0.4375H178.837V1.0625H179.462ZM183.612 1.0625H184.237V0.4375H183.612V1.0625ZM183.612 1.5875V2.2125H184.237V1.5875H183.612ZM180.062 1.5875V0.9625H179.437V1.5875H180.062ZM180.062 4.875H179.437V5.5H180.062V4.875ZM183.274 4.875H183.899V4.25H183.274V4.875ZM183.274 5.3875V6.0125H183.899V5.3875H183.274ZM180.062 5.3875V4.7625H179.437V5.3875H180.062ZM180.062 9.475H179.437V10.1H180.062V9.475ZM183.749 9.475H184.374V8.85H183.749V9.475ZM183.749 10V10.625H184.374V10H183.749ZM180.087 10V1.0625H178.837V10H180.087ZM179.462 1.6875H183.612V0.4375H179.462V1.6875ZM182.987 1.0625V1.5875H184.237V1.0625H182.987ZM183.612 0.9625H180.062V2.2125H183.612V0.9625ZM179.437 1.5875V4.875H180.687V1.5875H179.437ZM180.062 5.5H183.274V4.25H180.062V5.5ZM182.649 4.875V5.3875H183.899V4.875H182.649ZM183.274 4.7625H180.062V6.0125H183.274V4.7625ZM179.437 5.3875V9.475H180.687V5.3875H179.437ZM180.062 10.1H183.749V8.85H180.062V10.1ZM183.124 9.475V10H184.374V9.475H183.124ZM183.749 9.375H179.462V10.625H183.749V9.375ZM213.988 8.8125L213.53 9.23696L213.532 9.23925L213.988 8.8125ZM213.988 2.25L213.532 1.82325L213.532 1.8234L213.988 2.25ZM220.288 2.25L219.832 2.67676L219.834 2.67889L220.288 2.25ZM220.288 8.8125L219.832 8.38575L220.288 8.8125ZM214.438 2.6375L214.905 3.05367L214.907 3.05118L214.438 2.6375ZM214.438 8.425L213.97 8.83869L213.972 8.84146L214.438 8.425ZM219.838 8.425L219.372 8.00854L219.37 8.01132L219.838 8.425ZM219.838 2.6375L219.37 3.0512L219.375 3.05643L219.838 2.6375ZM214.447 8.38804C213.737 7.62046 213.376 6.67971 213.376 5.525H212.126C212.126 6.97029 212.59 8.22121 213.53 9.23696L214.447 8.38804ZM213.376 5.525C213.376 4.37029 213.737 3.43496 214.445 2.6766L213.532 1.8234C212.59 2.83171 212.126 4.07971 212.126 5.525H213.376ZM214.445 2.67675C215.155 1.91685 216.038 1.5375 217.138 1.5375V0.287499C215.706 0.287499 214.488 0.799813 213.532 1.82325L214.445 2.67675ZM217.138 1.5375C218.239 1.5375 219.122 1.91685 219.832 2.67675L220.745 1.82325C219.789 0.799813 218.571 0.287499 217.138 0.287499V1.5375ZM219.834 2.67889C220.55 3.43756 220.913 4.37213 220.913 5.525H222.163C222.163 4.07787 221.694 2.82911 220.743 1.82111L219.834 2.67889ZM220.913 5.525C220.913 6.67788 220.549 7.61787 219.832 8.38575L220.745 9.23925C221.694 8.2238 222.163 6.97212 222.163 5.525H220.913ZM219.832 8.38575C219.122 9.14565 218.239 9.525 217.138 9.525V10.775C218.571 10.775 219.789 10.2627 220.745 9.23925L219.832 8.38575ZM217.138 9.525C216.038 9.525 215.155 9.14565 214.445 8.38575L213.532 9.23925C214.488 10.2627 215.706 10.775 217.138 10.775V9.525ZM213.972 2.22134C213.167 3.12343 212.776 4.23922 212.776 5.525H214.026C214.026 4.51078 214.327 3.70157 214.905 3.05366L213.972 2.22134ZM212.776 5.525C212.776 6.81085 213.167 7.92934 213.97 8.83868L214.907 8.01132C214.327 7.35399 214.026 6.53915 214.026 5.525H212.776ZM213.972 8.84146C214.797 9.76441 215.87 10.225 217.138 10.225V8.975C216.207 8.975 215.48 8.65226 214.905 8.00854L213.972 8.84146ZM217.138 10.225C218.414 10.225 219.489 9.76533 220.307 8.83868L219.37 8.01132C218.805 8.65133 218.08 8.975 217.138 8.975V10.225ZM220.305 8.84146C221.117 7.93235 221.513 6.8129 221.513 5.525H220.263C220.263 6.5371 219.96 7.35099 219.372 8.00854L220.305 8.84146ZM221.513 5.525C221.513 4.23715 221.117 3.12042 220.302 2.21857L219.375 3.05643C219.96 3.70458 220.263 4.51285 220.263 5.525H221.513ZM220.307 2.22382C219.489 1.29717 218.414 0.8375 217.138 0.8375V2.0875C218.08 2.0875 218.805 2.41117 219.37 3.05118L220.307 2.22382ZM217.138 0.8375C215.863 0.8375 214.788 1.29717 213.97 2.22382L214.907 3.05118C215.472 2.41117 216.197 2.0875 217.138 2.0875V0.8375Z" fill="white" mask="url(#path-1-outside-1_672_1204)"/>
</svg>
